<?xml version="1.0" encoding="UTF-8" standalone="no"?>
<!DOCTYPE svg PUBLIC "-//W3C//DTD SVG 1.1//EN"
 "http://www.w3.org/Graphics/SVG/1.1/DTD/svg11.dtd">
<!-- Generated by graphviz version 13.1.0 (20250701.0955)
 -->
<!-- Title: src/driver_ttp229.h Pages: 1 -->
<svg width="366pt" height="232pt"
 viewBox="0.00 0.00 366.00 232.00" xmlns="http://www.w3.org/2000/svg" xmlns:xlink="http://www.w3.org/1999/xlink">
<g id="graph0" class="graph" transform="scale(1 1) rotate(0) translate(4 228)">
<title>src/driver_ttp229.h</title>
<!-- Node1 -->
<g id="Node000001" class="node">
<title>Node1</title>
<g id="a_Node000001"><a xlink:title="driver ttp229 header file">
<polygon fill="#999999" stroke="#666666" points="295.5,-224 198.5,-224 198.5,-204 295.5,-204 295.5,-224"/>
<text xml:space="preserve" text-anchor="middle" x="247" y="-210.5" font-family="Helvetica,sans-Serif" font-size="10.00">src/driver_ttp229.h</text>
</a>
</g>
</g>
<!-- Node2 -->
<g id="Node000002" class="node">
<title>Node2</title>
<g id="a_Node000002"><a xlink:href="driver__ttp229__interface_8h.html" target="_top" xlink:title="driver ttp229 interface header file">
<polygon fill="white" stroke="#666666" points="242.38,-168 129.62,-168 129.62,-136 242.38,-136 242.38,-168"/>
<text xml:space="preserve" text-anchor="start" x="137.62" y="-154.5" font-family="Helvetica,sans-Serif" font-size="10.00">interface/driver_ttp229</text>
<text xml:space="preserve" text-anchor="middle" x="186" y="-142.5" font-family="Helvetica,sans-Serif" font-size="10.00">_interface.h</text>
</a>
</g>
</g>
<!-- Node1&#45;&gt;Node2 -->
<g id="edge1_Node000001_Node000002" class="edge">
<title>Node1&#45;&gt;Node2</title>
<g id="a_edge1_Node000001_Node000002"><a xlink:title=" ">
<path fill="none" stroke="#63b8ff" d="M229.36,-195.65C220.51,-186.95 209.9,-176.51 201.39,-168.14"/>
<polygon fill="#63b8ff" stroke="#63b8ff" points="226.81,-198.05 236.39,-202.56 231.71,-193.06 226.81,-198.05"/>
</a>
</g>
</g>
<!-- Node8 -->
<g id="Node000008" class="node">
<title>Node8</title>
<g id="a_Node000008"><a xlink:href="driver__ttp229_8c.html" target="_top" xlink:title="driver ttp229 source file">
<polygon fill="white" stroke="#666666" points="357.5,-162 260.5,-162 260.5,-142 357.5,-142 357.5,-162"/>
<text xml:space="preserve" text-anchor="middle" x="309" y="-148.5" font-family="Helvetica,sans-Serif" font-size="10.00">src/driver_ttp229.c</text>
</a>
</g>
</g>
<!-- Node1&#45;&gt;Node8 -->
<g id="edge7_Node000001_Node000008" class="edge">
<title>Node1&#45;&gt;Node8</title>
<g id="a_edge7_Node000001_Node000008"><a xlink:title=" ">
<path fill="none" stroke="#63b8ff" d="M264.67,-195.9C276.03,-184.91 290.35,-171.05 299.58,-162.11"/>
<polygon fill="#63b8ff" stroke="#63b8ff" points="262.53,-193.1 257.78,-202.57 267.4,-198.13 262.53,-193.1"/>
</a>
</g>
</g>
<!-- Node3 -->
<g id="Node000003" class="node">
<title>Node3</title>
<g id="a_Node000003"><a xlink:href="driver__ttp229__basic_8h.html" target="_top" xlink:title="driver ttp229 basic header file">
<polygon fill="white" stroke="#666666" points="112,-100 0,-100 0,-68 112,-68 112,-100"/>
<text xml:space="preserve" text-anchor="start" x="8" y="-86.5" font-family="Helvetica,sans-Serif" font-size="10.00">example/driver_ttp229</text>
<text xml:space="preserve" text-anchor="middle" x="56" y="-74.5" font-family="Helvetica,sans-Serif" font-size="10.00">_basic.h</text>
</a>
</g>
</g>
<!-- Node2&#45;&gt;Node3 -->
<g id="edge2_Node000002_Node000003" class="edge">
<title>Node2&#45;&gt;Node3</title>
<g id="a_edge2_Node000002_Node000003"><a xlink:title=" ">
<path fill="none" stroke="#63b8ff" d="M145.3,-130.34C126.21,-120.65 103.86,-109.3 86.29,-100.38"/>
<polygon fill="#63b8ff" stroke="#63b8ff" points="143.67,-133.43 154.17,-134.84 146.84,-127.19 143.67,-133.43"/>
</a>
</g>
</g>
<!-- Node5 -->
<g id="Node000005" class="node">
<title>Node5</title>
<g id="a_Node000005"><a xlink:href="driver__ttp229__interface__template_8c.html" target="_top" xlink:title="driver ttp229 interface template source file">
<polygon fill="white" stroke="#666666" points="242.38,-100 129.62,-100 129.62,-68 242.38,-68 242.38,-100"/>
<text xml:space="preserve" text-anchor="start" x="137.62" y="-86.5" font-family="Helvetica,sans-Serif" font-size="10.00">interface/driver_ttp229</text>
<text xml:space="preserve" text-anchor="middle" x="186" y="-74.5" font-family="Helvetica,sans-Serif" font-size="10.00">_interface_template.c</text>
</a>
</g>
</g>
<!-- Node2&#45;&gt;Node5 -->
<g id="edge4_Node000002_Node000005" class="edge">
<title>Node2&#45;&gt;Node5</title>
<g id="a_edge4_Node000002_Node000005"><a xlink:title=" ">
<path fill="none" stroke="#63b8ff" d="M186,-124.31C186,-116.12 186,-107.38 186,-100.22"/>
<polygon fill="#63b8ff" stroke="#63b8ff" points="182.5,-124.18 186,-134.18 189.5,-124.18 182.5,-124.18"/>
</a>
</g>
</g>
<!-- Node6 -->
<g id="Node000006" class="node">
<title>Node6</title>
<g id="a_Node000006"><a xlink:href="driver__ttp229__read__test_8h.html" target="_top" xlink:title="driver ttp229 read test header file">
<polygon fill="white" stroke="#666666" points="351.88,-100 260.12,-100 260.12,-68 351.88,-68 351.88,-100"/>
<text xml:space="preserve" text-anchor="start" x="268.12" y="-86.5" font-family="Helvetica,sans-Serif" font-size="10.00">test/driver_ttp229</text>
<text xml:space="preserve" text-anchor="middle" x="306" y="-74.5" font-family="Helvetica,sans-Serif" font-size="10.00">_read_test.h</text>
</a>
</g>
</g>
<!-- Node2&#45;&gt;Node6 -->
<g id="edge5_Node000002_Node000006" class="edge">
<title>Node2&#45;&gt;Node6</title>
<g id="a_edge5_Node000002_Node000006"><a xlink:title=" ">
<path fill="none" stroke="#63b8ff" d="M224.06,-130.07C241.57,-120.44 261.97,-109.21 278.04,-100.38"/>
<polygon fill="#63b8ff" stroke="#63b8ff" points="222.54,-126.91 215.46,-134.8 225.91,-133.04 222.54,-126.91"/>
</a>
</g>
</g>
<!-- Node4 -->
<g id="Node000004" class="node">
<title>Node4</title>
<g id="a_Node000004"><a xlink:href="driver__ttp229__basic_8c.html" target="_top" xlink:title="driver ttp229 basic source file">
<polygon fill="white" stroke="#666666" points="112,-32 0,-32 0,0 112,0 112,-32"/>
<text xml:space="preserve" text-anchor="start" x="8" y="-18.5" font-family="Helvetica,sans-Serif" font-size="10.00">example/driver_ttp229</text>
<text xml:space="preserve" text-anchor="middle" x="56" y="-6.5" font-family="Helvetica,sans-Serif" font-size="10.00">_basic.c</text>
</a>
</g>
</g>
<!-- Node3&#45;&gt;Node4 -->
<g id="edge3_Node000003_Node000004" class="edge">
<title>Node3&#45;&gt;Node4</title>
<g id="a_edge3_Node000003_Node000004"><a xlink:title=" ">
<path fill="none" stroke="#63b8ff" d="M56,-56.31C56,-48.12 56,-39.38 56,-32.22"/>
<polygon fill="#63b8ff" stroke="#63b8ff" points="52.5,-56.18 56,-66.18 59.5,-56.18 52.5,-56.18"/>
</a>
</g>
</g>
<!-- Node7 -->
<g id="Node000007" class="node">
<title>Node7</title>
<g id="a_Node000007"><a xlink:href="driver__ttp229__read__test_8c.html" target="_top" xlink:title="driver ttp229 read test source file">
<polygon fill="white" stroke="#666666" points="351.88,-32 260.12,-32 260.12,0 351.88,0 351.88,-32"/>
<text xml:space="preserve" text-anchor="start" x="268.12" y="-18.5" font-family="Helvetica,sans-Serif" font-size="10.00">test/driver_ttp229</text>
<text xml:space="preserve" text-anchor="middle" x="306" y="-6.5" font-family="Helvetica,sans-Serif" font-size="10.00">_read_test.c</text>
</a>
</g>
</g>
<!-- Node6&#45;&gt;Node7 -->
<g id="edge6_Node000006_Node000007" class="edge">
<title>Node6&#45;&gt;Node7</title>
<g id="a_edge6_Node000006_Node000007"><a xlink:title=" ">
<path fill="none" stroke="#63b8ff" d="M306,-56.31C306,-48.12 306,-39.38 306,-32.22"/>
<polygon fill="#63b8ff" stroke="#63b8ff" points="302.5,-56.18 306,-66.18 309.5,-56.18 302.5,-56.18"/>
</a>
</g>
</g>
</g>
</svg>
